<svg width="250" height="250" viewBox="0 0 141 121" fill="#EAEAEA" xmlns="http://www.w3.org/2000/svg">
    <circle cx="2.5" cy="2.5" r="2.5" />
    <circle cx="2.5" cy="19.5" r="2.5" />
    <circle cx="2.5" cy="36.5" r="2.5" />
    <circle cx="2.5" cy="53.5" r="2.5" />
    <circle cx="2.5" cy="70.5" r="2.5" />
    <circle cx="2.5" cy="87.5" r="2.5" />
    <circle cx="2.5" cy="104.5" r="2.5" />
    <circle cx="2.5" cy="121.5" r="2.5" />
    <circle cx="2.5" cy="138.5" r="2.5" />
    <circle cx="87.5" cy="2.5" r="2.5" />
    <circle cx="87.5" cy="19.5" r="2.5" />
    <circle cx="87.5" cy="36.5" r="2.5" />
    <circle cx="87.5" cy="53.5" r="2.5" />
    <circle cx="87.5" cy="70.5" r="2.5" />
    <circle cx="87.5" cy="87.5" r="2.5" />
    <circle cx="87.5" cy="104.5" r="2.5" />
    <circle cx="87.5" cy="121.5" r="2.5" />
    <circle cx="87.5" cy="138.5" r="2.5" />
    <circle cx="19.5" cy="2.5" r="2.5" />
    <circle cx="19.5" cy="19.5" r="2.5" />
    <circle cx="19.5" cy="36.5" r="2.5" />
    <circle cx="19.5" cy="53.5" r="2.5" />
    <circle cx="19.5" cy="70.5" r="2.5" />
    <circle cx="19.5" cy="87.5" r="2.5" />
    <circle cx="19.5" cy="104.5" r="2.5" />
    <circle cx="19.5" cy="121.5" r="2.5" />
    <circle cx="19.5" cy="138.5" r="2.5" />
    <circle cx="104.5" cy="2.5" r="2.5" />
    <circle cx="104.5" cy="19.5" r="2.5" />
    <circle cx="104.5" cy="36.5" r="2.5" />
    <circle cx="104.5" cy="53.5" r="2.5" />
    <circle cx="104.5" cy="70.5" r="2.5" />
    <circle cx="104.5" cy="87.5" r="2.5" />
    <circle cx="104.5" cy="104.5" r="2.5" />
    <circle cx="104.5" cy="121.5" r="2.5" />
    <circle cx="104.5" cy="138.5" r="2.5" />
    <circle cx="36.5" cy="2.5" r="2.5" />
    <circle cx="36.5" cy="19.5" r="2.5" />
    <circle cx="36.5" cy="36.5" r="2.5" />
    <circle cx="36.5" cy="53.5" r="2.5" />
    <circle cx="36.5" cy="70.5" r="2.5" />
    <circle cx="36.5" cy="87.5" r="2.5" />
    <circle cx="36.5" cy="104.5" r="2.5" />
    <circle cx="36.5" cy="121.5" r="2.5" />
    <circle cx="33.5" cy="138.5" r="2.5" />
    <circle cx="121.5" cy="2.5" r="2.5" />
    <circle cx="121.5" cy="19.5" r="2.5" />
    <circle cx="121.5" cy="36.5" r="2.5" />
    <circle cx="121.5" cy="53.5" r="2.5" />
    <circle cx="121.5" cy="70.5" r="2.5" />
    <circle cx="121.5" cy="87.5" r="2.5" />
    <circle cx="121.5" cy="104.5" r="2.5" />
    <circle cx="121.5" cy="121.5" r="2.5" />
    <circle cx="121.5" cy="138.5" r="2.5" />
    <circle cx="53.5" cy="2.5" r="2.5" />
    <circle cx="53.5" cy="19.5" r="2.5" />
    <circle cx="53.5" cy="36.5" r="2.5" />
    <circle cx="53.5" cy="53.5" r="2.5" />
    <circle cx="53.5" cy="70.5" r="2.5" />
    <circle cx="53.5" cy="87.5" r="2.5" />
    <circle cx="53.5" cy="104.5" r="2.5" />
    <circle cx="53.5" cy="121.5" r="2.5" />
    <circle cx="50.5" cy="138.5" r="2.5" />
    <circle cx="70.5" cy="2.5" r="2.5" />
    <circle cx="70.5" cy="19.5" r="2.5" />
    <circle cx="70.5" cy="36.5" r="2.5" />
    <circle cx="70.5" cy="53.5" r="2.5" />
    <circle cx="70.5" cy="70.5" r="2.5" />
    <circle cx="70.5" cy="87.5" r="2.5" />
    <circle cx="70.5" cy="104.5" r="2.5" />
    <circle cx="70.5" cy="121.5" r="2.5" />
    <circle cx="67.5" cy="138.5" r="2.5" />
    </svg>
    