<?xml version="1.0" standalone="no"?>
<!DOCTYPE svg PUBLIC "-//W3C//DTD SVG 20010904//EN"
 "http://www.w3.org/TR/2001/REC-SVG-20010904/DTD/svg10.dtd">
<svg version="1.0" xmlns="http://www.w3.org/2000/svg"
 width="800.000000pt" height="800.000000pt" viewBox="0 0 800.000000 800.000000"
 preserveAspectRatio="xMidYMid meet">

<g transform="translate(0.000000,800.000000) scale(0.100000,-0.100000)"
fill="#000000" stroke="none">
<path d="M1170 3994 l0 -1455 698 4 c665 4 702 5 796 25 242 52 389 126 523
264 256 264 395 668 396 1153 0 418 -87 750 -272 1030 -161 244 -370 369 -706
421 -70 11 -240 14 -762 14 l-673 0 0 -1456z m1319 942 c206 -52 351 -194 425
-418 74 -219 94 -560 50 -838 -47 -298 -167 -493 -359 -581 -113 -51 -183 -59
-525 -59 l-310 0 0 953 c0 525 3 957 8 961 4 5 151 6 327 3 248 -4 334 -9 384
-21z"/>
<path d="M4000 3995 l0 -1455 300 0 300 0 2 541 3 541 790 309 c435 170 800
312 813 315 l22 6 0 -856 0 -856 300 0 300 0 0 1455 0 1455 -300 0 -300 0 0
-580 0 -580 -815 0 -815 0 0 580 0 580 -300 0 -300 0 0 -1455z"/>
</g>
</svg>
